HIERARCHY
ROOT root
{
	OFFSET 0.000000 0.000000 0.000000
	CHANNELS 6 Xposition Yposition Zposition Zrotation Yrotation Xrotation
	JOINT lhip
	{
		OFFSET 0.058581 -0.082280 -0.017664
		CHANNELS 3 Zrotation Yrotation Xrotation
		JOINT lknee
		{
			OFFSET 0.043451 -0.386469 0.008037
			CHANNELS 3 Zrotation Yrotation Xrotation
			JOINT lankle
			{
				OFFSET -0.014790 -0.426874 -0.037428
				CHANNELS 3 Zrotation Yrotation Xrotation
				JOINT ltoe
				{
					OFFSET 0.041054 -0.060286 0.122042
					CHANNELS 3 Zrotation Yrotation Xrotation
					End Site
					{
						OFFSET 0.000000 0.000000 0.000000
					}
				}
			}
		}
	}
	JOINT rhip
	{
		OFFSET -0.060310 -0.090513 -0.013543
		CHANNELS 3 Zrotation Yrotation Xrotation
		JOINT rknee
		{
			OFFSET -0.043257 -0.383688 -0.004843
			CHANNELS 3 Zrotation Yrotation Xrotation
			JOINT rankle
			{
				OFFSET 0.019056 -0.420046 -0.034562
				CHANNELS 3 Zrotation Yrotation Xrotation
				JOINT rtoe
				{
					OFFSET -0.034840 -0.062106 0.130323
					CHANNELS 3 Zrotation Yrotation Xrotation
					End Site
					{
						OFFSET 0.000000 0.000000 0.000000
					}
				}
			}
		}
	}
	JOINT lowerback
	{
		OFFSET 0.004439 0.124404 -0.038385
		CHANNELS 3 Zrotation Yrotation Xrotation
		JOINT upperback
		{
			OFFSET 0.004488 0.137956 0.026820
			CHANNELS 3 Zrotation Yrotation Xrotation
			JOINT chest
			{
				OFFSET -0.002265 0.056032 0.002855
				CHANNELS 3 Zrotation Yrotation Xrotation
				JOINT lowerneck
				{
					OFFSET -0.013390 0.211636 -0.033468
					CHANNELS 3 Zrotation Yrotation Xrotation
					JOINT upperneck
					{
						OFFSET 0.010113 0.088937 0.050410
						CHANNELS 3 Zrotation Yrotation Xrotation
						End Site
						{
							OFFSET 0.000000 0.000000 0.000000
						}
					}
				}
				JOINT lclavicle
				{
					OFFSET 0.071702 0.114000 -0.018898
					CHANNELS 3 Zrotation Yrotation Xrotation
					JOINT lshoulder
					{
						OFFSET 0.122921 0.045205 -0.019046
						CHANNELS 3 Zrotation Yrotation Xrotation
						JOINT lelbow
						{
							OFFSET 0.255332 -0.015649 -0.022946
							CHANNELS 3 Zrotation Yrotation Xrotation
							JOINT lwrist
							{
								OFFSET 0.265709 0.012698 -0.007375
								CHANNELS 3 Zrotation Yrotation Xrotation
								End Site
								{
									OFFSET 0.000000 0.000000 0.000000
								}
							}
						}
					}
				}
				JOINT rclavicle
				{
					OFFSET -0.082954 0.112472 -0.023707
					CHANNELS 3 Zrotation Yrotation Xrotation
					JOINT rshoulder
					{
						OFFSET -0.113228 0.046853 -0.008472
						CHANNELS 3 Zrotation Yrotation Xrotation
						JOINT relbow
						{
							OFFSET -0.260127 -0.014369 -0.031269
							CHANNELS 3 Zrotation Yrotation Xrotation
							JOINT rwrist
							{
								OFFSET -0.269108 0.006794 -0.006027
								CHANNELS 3 Zrotation Yrotation Xrotation
								End Site
								{
									OFFSET 0.000000 0.000000 0.000000
								}
							}
						}
					}
				}
			}
		}
	}
}
MOTION
Frames: 16
Frame Time: 0.033333
0.436299 0.699308 0.986094 -85.973572 4.118193 80.875791 1.832620 0.402833 9.874444 -4.603495 -18.353639 9.461985 5.522859 9.010401 -18.801167 0.000000 -0.000000 0.000000 0.665231 -0.306594 -16.046957 1.955972 -5.299127 20.458273 7.375442 -7.691383 -5.341631 0.000000 -0.000000 0.000000 -2.986593 -3.018453 14.594966 2.542960 -3.158260 4.369560 0.619154 -4.680812 8.476967 4.567344 -1.697434 9.651786 2.855077 -5.592665 13.228177 -23.949378 6.792565 3.802191 -58.371343 -12.474102 7.668767 12.747951 -37.381991 0.031899 -1.194240 -1.005293 -10.493063 24.231852 -7.885773 -0.832961 61.298361 -2.667247 11.382121 -15.316008 26.708117 -5.951782 6.866811 -0.192184 -7.388351 
0.416094 0.701464 0.984226 -85.699896 4.102161 81.049088 2.149452 0.435109 11.133440 -4.660163 -18.609092 9.647130 5.465732 9.050299 -19.700509 0.000000 -0.000000 0.000000 1.054120 -0.622538 -14.816122 2.512539 -4.391634 15.089074 7.758012 -6.613607 -3.595894 0.000000 -0.000000 0.000000 -2.874600 -2.969384 13.757756 2.587946 -3.456869 4.996099 0.813212 -4.619409 8.456850 4.374227 -1.901370 10.044613 2.955381 -5.593109 13.235706 -23.500341 6.404565 3.905031 -58.769332 -13.000008 7.798957 13.069830 -37.115859 -0.219926 -1.271716 -0.988605 -10.821786 23.963931 -7.810892 -0.504618 61.440171 -2.716244 11.033809 -15.282424 25.439802 -5.689368 6.984373 -0.338665 -7.550558 
0.389227 0.705193 0.981422 -85.692038 3.857181 81.349550 2.084755 0.294013 12.367376 -4.708375 -18.591475 10.715921 5.453220 9.576008 -20.808652 0.000000 -0.000000 0.000000 1.629798 -1.133948 -13.757221 2.807844 -4.433980 13.709508 8.037993 -6.648785 -2.062016 0.000000 -0.000000 0.000000 -2.792046 -2.946141 12.698472 2.596670 -3.536376 5.186369 0.857385 -4.660313 8.464538 4.212377 -2.068657 10.256302 2.878587 -5.332800 13.605745 -23.445206 6.594270 4.000873 -58.812378 -13.027723 7.623250 13.436697 -37.175416 -0.476044 -1.258445 -1.062418 -10.810452 23.937561 -8.145563 -0.330026 61.203667 -3.036348 10.786520 -15.111463 24.682553 -5.451490 7.047489 -0.475020 -7.371037 
0.367544 0.709067 0.979305 -85.635813 3.659059 81.542322 1.774505 -0.029160 12.780267 -4.773186 -18.691240 12.929824 5.337050 10.333788 -21.757456 0.000000 -0.000000 0.000000 2.176938 -1.037672 -12.582258 2.606034 -3.906109 14.078008 6.285404 -6.705667 -1.288687 0.000000 -0.000000 0.000000 -2.500371 -3.279709 12.424698 2.471680 -3.556060 4.673590 0.703518 -4.752215 8.452259 3.894622 -2.024600 10.293751 2.663239 -4.664350 13.704142 -23.655724 7.216766 3.991529 -58.563231 -12.488152 7.266466 13.145856 -37.012525 -0.029512 -1.569475 -0.986581 -11.165677 24.085137 -8.594213 -0.575587 60.894036 -3.353761 10.729673 -14.969731 24.382556 -5.065584 7.025908 -0.511738 -7.353624 
0.346125 0.713531 0.978800 -86.272492 3.708352 81.350228 1.350020 -0.557461 13.296559 -4.715256 -18.556191 16.002524 5.094598 11.291914 -22.046401 0.000000 -0.000000 0.000000 2.966696 -0.796201 -11.872366 2.425560 -3.089004 15.487881 5.016503 -7.464453 -1.030558 0.000000 -0.000000 0.000000 -1.845246 -3.414228 12.095288 2.397487 -3.214464 4.818631 0.335365 -4.648975 8.666969 3.942247 -1.854427 9.712701 2.246105 -4.361565 14.378235 -24.359167 7.581448 3.600826 -57.950002 -12.139614 7.178426 12.980509 -36.235998 0.049697 -1.489553 -0.982892 -10.871595 24.676913 -8.704894 -0.989552 60.282705 -3.172808 10.898877 -15.040996 24.057892 -5.695159 6.676061 -0.568286 -7.462206 
0.324266 0.719158 0.980986 -87.074519 4.463908 80.492084 1.846064 -1.481955 13.722421 -5.341768 -17.351041 20.781622 2.156852 11.410861 -21.797715 0.000000 -0.000000 0.000000 4.717470 0.546824 -9.867932 1.911018 -2.749530 16.492366 4.320411 -8.092634 -1.952391 0.000000 -0.000000 0.000000 -1.033186 -3.074798 11.583644 3.233666 -3.640899 7.727667 -0.171547 -3.960581 7.439614 4.405834 -0.722066 9.886115 2.404896 -5.278515 12.994026 -23.962169 7.138907 2.664951 -59.099648 -10.887022 8.794692 13.693081 -34.917239 -0.008605 0.212073 -1.368790 -14.364341 24.436716 -8.406050 -2.028618 61.543437 -3.081879 10.298430 -16.913767 23.402390 -5.317596 7.589121 0.117732 -7.473581 
0.304870 0.724414 0.983371 -87.724794 4.615400 80.507448 2.057478 -2.363296 10.635181 -7.326104 -14.668516 29.239107 1.443907 10.034586 -18.566478 0.000000 -0.000000 0.000000 5.364362 0.562527 -8.331635 2.162838 -2.574069 16.304968 3.263261 -7.392856 -3.485804 0.000000 -0.000000 0.000000 -0.619494 -2.669972 11.551102 3.519216 -3.925920 7.479951 -0.247459 -3.739005 7.340065 4.055025 -0.539508 10.501994 2.291778 -5.038515 13.140879 -23.771306 7.185841 3.128937 -60.188419 -9.930296 8.510612 14.124813 -33.795599 0.269464 -0.325867 -0.999550 -14.964658 24.114624 -8.138369 -1.594347 62.044114 -2.499796 10.052227 -17.895932 24.339274 -5.019554 7.567767 -0.105585 -9.007653 
0.285235 0.729735 0.986206 -88.850774 4.370475 79.857712 2.425205 -2.713750 6.634018 -9.708809 -10.538345 39.535275 -0.706484 8.306942 -12.062619 0.000000 -0.000000 0.000000 5.654245 -0.160476 -5.526865 2.406611 -2.092876 15.139639 1.869968 -6.006081 -4.483952 0.000000 -0.000000 0.000000 -0.468446 -1.465316 11.989152 3.746223 -4.214919 7.836847 -0.339815 -3.406957 7.050278 3.645642 -0.366744 10.643284 2.452929 -4.749157 13.006547 -23.829168 7.145741 2.916651 -60.530521 -8.697412 8.373264 13.443021 -33.027742 1.360100 -1.283628 -0.536060 -15.322695 24.059980 -7.888496 -1.486159 61.937423 -1.791916 9.771349 -17.970049 25.459720 -4.271389 7.896708 -0.216443 -10.014973 
0.268420 0.734864 0.987377 -89.546338 4.302196 79.312207 3.557737 -2.761458 0.825413 -10.979115 -5.728112 50.469254 -3.283110 6.445608 -6.496381 0.000000 -0.000000 0.000000 5.867770 -0.674347 -3.032865 2.731945 -1.996339 13.995679 0.777153 -5.037177 -5.163814 0.000000 -0.000000 0.000000 0.001005 -0.322518 13.048546 4.022824 -4.361409 7.642166 -0.528097 -3.147348 6.605514 3.211968 -0.685798 10.406641 2.766527 -4.642623 12.913986 -24.103453 6.993506 3.039961 -60.169466 -7.491840 7.940079 12.247903 -33.332656 3.228674 -2.860992 -0.245101 -14.899115 24.128536 -8.007768 -1.347165 61.566883 -1.516196 9.226110 -18.174807 28.094605 -3.867804 8.612213 0.362048 -10.678563 
0.250852 0.738801 0.987988 -91.084594 3.813175 78.286947 4.116112 -2.432048 -4.055357 -10.496337 -0.490845 59.609148 -0.873965 7.926964 -9.600588 0.000000 -0.000000 0.000000 5.645113 -1.394403 -0.582393 3.006940 -0.380585 13.985088 0.623426 -4.330099 -6.499434 0.000000 -0.000000 0.000000 0.051194 1.245492 14.030743 4.061981 -4.134522 7.696792 -0.638737 -2.752562 6.795745 3.219918 -0.742484 9.934951 2.852201 -4.066548 12.730723 -24.545673 6.523572 3.180431 -59.632087 -6.311610 7.640347 11.353903 -33.938421 4.229978 -2.544502 -0.233426 -14.316960 24.289734 -7.107130 -1.152567 60.747414 -1.028797 9.458634 -17.737544 30.421121 -3.756131 8.001935 0.690639 -11.319348 
0.235819 0.741829 0.988916 -92.359929 3.234710 77.480012 4.735145 -2.808077 -9.704351 -7.929021 4.618594 68.002498 1.342997 10.282297 -13.213086 0.000000 -0.000000 0.000000 5.407166 -1.517295 1.547363 2.798366 0.645861 13.725749 0.662722 -4.009687 -7.450350 0.000000 -0.000000 0.000000 -0.144588 2.672174 15.187515 4.114939 -4.021647 7.436378 -0.609597 -2.361382 7.128228 3.268164 -1.178115 9.629111 2.764117 -3.969448 13.026042 -24.906118 6.464135 3.056342 -59.781398 -5.754989 7.408664 11.022131 -33.703190 4.758814 -1.711392 -0.291087 -13.746741 24.555127 -6.292594 -1.291834 59.877039 0.225533 9.875170 -17.392138 31.745509 -3.827157 6.845668 0.677086 -11.523344 
0.222019 0.744231 0.990447 -93.052691 2.597680 77.274519 5.424635 -3.711278 -16.243702 -6.626868 7.712656 74.609236 2.752085 10.377548 -16.920744 0.000000 -0.000000 0.000000 5.088269 -1.651653 2.922794 2.376639 1.284394 13.452755 1.029984 -3.513323 -8.208729 0.000000 -0.000000 0.000000 -0.693432 4.049736 15.905041 4.269892 -4.235147 6.834490 -0.441071 -2.045799 7.614920 3.340325 -1.174191 9.979741 3.021459 -3.886787 12.633940 -24.857432 6.729478 2.905605 -60.672891 -5.452654 7.444553 11.083592 -33.074431 4.783742 -1.149688 0.316467 -14.237860 24.542145 -5.767828 -1.707677 59.794486 1.918949 10.367004 -17.592603 32.018802 -3.874566 5.397844 0.277825 -11.514344 
0.207684 0.744833 0.991890 -93.418486 1.622989 77.031244 5.869417 -5.844647 -22.431901 -5.098986 10.875276 78.902189 2.440318 9.030205 -19.592986 0.000000 -0.000000 0.000000 4.286859 -1.396656 4.697211 2.183183 2.635583 12.575709 1.229827 -4.286972 -8.663070 0.000000 -0.000000 0.000000 -1.406921 5.515709 16.316643 4.057647 -4.911281 7.360562 0.017558 -1.774452 6.887736 2.340599 -2.030791 10.202380 3.853448 -3.310479 13.859922 -24.458517 5.834219 3.728027 -62.339314 -4.733455 5.193145 12.202021 -32.261822 2.390883 -3.383739 -0.152306 -10.288164 23.755918 -4.146795 -1.103131 60.326644 2.905183 9.261581 -18.423182 32.945079 -5.977002 6.001436 -0.427167 -10.047924 
0.193963 0.745754 0.993090 -94.207992 0.757485 77.125705 6.840112 -6.761400 -28.464934 -4.769572 12.928295 80.647760 3.100593 8.818141 -21.422616 0.000000 -0.000000 0.000000 3.595205 -1.220676 5.631393 1.908078 3.490509 12.600248 1.613127 -4.132227 -9.372245 0.000000 -0.000000 0.000000 -1.873320 7.071890 16.340709 4.035192 -4.918956 7.308423 -0.029019 -1.476982 7.037138 2.366748 -2.205409 9.958168 3.880487 -3.663365 14.297575 -24.318258 5.486210 3.966393 -62.706011 -4.546107 4.848306 11.817337 -31.450981 2.632492 -3.495851 -0.128271 -9.703873 23.634167 -3.596920 -0.882337 60.832946 4.246564 9.281771 -19.650452 33.503663 -7.003227 6.057113 -0.557125 -10.046025 
0.178924 0.746335 0.993883 -94.702147 0.258846 76.908901 7.811793 -6.911608 -33.434149 -4.310153 13.771421 80.196220 3.767711 8.203255 -22.636234 0.000000 -0.000000 0.000000 3.060588 -2.004905 7.435554 1.640171 4.640898 11.801426 1.298272 -3.775104 -10.042098 0.000000 -0.000000 0.000000 -1.737749 8.114082 17.176391 3.771326 -4.981502 6.547143 -0.178363 -1.239648 7.105381 2.172323 -2.270860 10.100999 4.015963 -3.887848 14.514693 -24.481239 5.500302 4.271453 -62.602657 -3.889173 4.470703 11.591983 -31.158060 3.808786 -3.715200 -0.205801 -9.503674 23.502736 -3.162168 -0.677433 61.155424 5.178823 9.044432 -20.084410 34.463452 -7.020678 6.467514 -0.390095 -10.621646 
0.164388 0.747189 0.994100 -95.475480 -0.031538 76.735071 8.994487 -6.372978 -37.091597 -3.697582 14.392728 77.285377 3.516416 8.003257 -23.027091 0.000000 -0.000000 0.000000 2.773635 -2.387356 8.981300 1.499887 5.571202 11.380927 0.816797 -3.343933 -11.073631 0.000000 -0.000000 0.000000 -1.804242 8.848396 17.586271 3.559727 -4.866857 6.611253 -0.198297 -0.805115 7.181435 2.141979 -1.916551 9.779451 4.147633 -4.366107 14.597346 -24.736110 5.510621 4.037426 -62.498913 -3.305693 4.287784 11.834542 -30.937270 3.813235 -3.944094 0.072635 -9.271975 23.530718 -2.383694 -0.535540 61.021244 6.257751 9.192260 -19.830046 35.250023 -7.020858 5.700655 -0.203038 -11.341243 
